<mxfile host="Electron" modified="2023-10-28T13:04:38.230Z" agent="Mozilla/5.0 (Windows NT 10.0; Win64; x64) AppleWebKit/537.36 (KHTML, like Gecko) draw.io/21.6.8 Chrome/114.0.5735.289 Electron/25.5.0 Safari/537.36" etag="r2NVUsYs6Qs4fsE4YN9k" version="21.6.8" type="device">
  <diagram name="Page-1" id="cBt5FJP93KBJubi952l_">
    <mxGraphModel dx="989" dy="582" grid="1" gridSize="10" guides="1" tooltips="1" connect="1" arrows="1" fold="1" page="1" pageScale="1" pageWidth="850" pageHeight="1100" math="0" shadow="0">
      <root>
        <mxCell id="0" />
        <mxCell id="1" parent="0" />
        <mxCell id="Qa7tUvaV04lccMH_RGPz-82" value="«class»&lt;br&gt;&lt;b&gt;CCP15&lt;/b&gt;" style="html=1;whiteSpace=wrap;fontFamily=Computer Modern;shadow=1;" vertex="1" parent="1">
          <mxGeometry x="130" y="320" width="110" height="40" as="geometry" />
        </mxCell>
        <mxCell id="Qa7tUvaV04lccMH_RGPz-83" value="«interface»&lt;br&gt;&lt;b&gt;IPrimary_Reg&lt;/b&gt;" style="html=1;whiteSpace=wrap;fontFamily=Computer Modern;shadow=1;" vertex="1" parent="1">
          <mxGeometry x="290" y="320" width="110" height="40" as="geometry" />
        </mxCell>
        <mxCell id="Qa7tUvaV04lccMH_RGPz-85" value="«class»&lt;br&gt;&lt;b&gt;CC1&lt;/b&gt;" style="html=1;whiteSpace=wrap;fontFamily=Computer Modern;shadow=1;" vertex="1" parent="1">
          <mxGeometry x="440" y="320" width="110" height="40" as="geometry" />
        </mxCell>
        <mxCell id="Qa7tUvaV04lccMH_RGPz-91" value="&amp;lt;&amp;lt;implements&amp;gt;&amp;gt;" style="text;html=1;strokeColor=none;fillColor=none;align=center;verticalAlign=middle;whiteSpace=wrap;rounded=0;fontFamily=Computer Modern;" vertex="1" parent="1">
          <mxGeometry x="390" y="290" width="60" height="30" as="geometry" />
        </mxCell>
        <mxCell id="Qa7tUvaV04lccMH_RGPz-92" value="1" style="text;html=1;strokeColor=none;fillColor=none;align=center;verticalAlign=middle;whiteSpace=wrap;rounded=0;fontFamily=Computer Modern;" vertex="1" parent="1">
          <mxGeometry x="247" y="312" width="10" height="20" as="geometry" />
        </mxCell>
        <mxCell id="Qa7tUvaV04lccMH_RGPz-93" value="N" style="text;html=1;strokeColor=none;fillColor=none;align=center;verticalAlign=middle;whiteSpace=wrap;rounded=0;fontFamily=Computer Modern;" vertex="1" parent="1">
          <mxGeometry x="275" y="312" width="10" height="20" as="geometry" />
        </mxCell>
        <mxCell id="Qa7tUvaV04lccMH_RGPz-94" value="«class»&lt;br&gt;&lt;b&gt;CSecondary_Reg&lt;/b&gt;" style="html=1;whiteSpace=wrap;fontFamily=Computer Modern;shadow=1;" vertex="1" parent="1">
          <mxGeometry x="440" y="407" width="110" height="40" as="geometry" />
        </mxCell>
        <mxCell id="Qa7tUvaV04lccMH_RGPz-96" value="«class»&lt;br&gt;&lt;b&gt;CRegister : uint32_t&lt;/b&gt;" style="html=1;whiteSpace=wrap;fontFamily=Computer Modern;shadow=1;" vertex="1" parent="1">
          <mxGeometry x="271" y="407" width="120" height="40" as="geometry" />
        </mxCell>
        <mxCell id="Qa7tUvaV04lccMH_RGPz-98" value="" style="endArrow=block;dashed=1;endFill=0;endSize=12;html=1;rounded=0;entryX=1;entryY=0.5;entryDx=0;entryDy=0;exitX=0;exitY=0.5;exitDx=0;exitDy=0;fontFamily=Computer Modern;" edge="1" parent="1" source="Qa7tUvaV04lccMH_RGPz-85" target="Qa7tUvaV04lccMH_RGPz-83">
          <mxGeometry width="160" relative="1" as="geometry">
            <mxPoint x="315" y="503" as="sourcePoint" />
            <mxPoint x="315" y="460" as="targetPoint" />
          </mxGeometry>
        </mxCell>
        <mxCell id="Qa7tUvaV04lccMH_RGPz-101" value="N" style="text;html=1;strokeColor=none;fillColor=none;align=center;verticalAlign=middle;whiteSpace=wrap;rounded=0;fontFamily=Computer Modern;" vertex="1" parent="1">
          <mxGeometry x="510" y="387" width="10" height="20" as="geometry" />
        </mxCell>
        <mxCell id="Qa7tUvaV04lccMH_RGPz-102" value="N" style="text;html=1;strokeColor=none;fillColor=none;align=center;verticalAlign=middle;whiteSpace=wrap;rounded=0;fontFamily=Computer Modern;" vertex="1" parent="1">
          <mxGeometry x="397" y="397" width="10" height="20" as="geometry" />
        </mxCell>
        <mxCell id="Qa7tUvaV04lccMH_RGPz-103" value="1" style="text;html=1;strokeColor=none;fillColor=none;align=center;verticalAlign=middle;whiteSpace=wrap;rounded=0;fontFamily=Computer Modern;" vertex="1" parent="1">
          <mxGeometry x="510" y="360" width="10" height="20" as="geometry" />
        </mxCell>
        <mxCell id="Qa7tUvaV04lccMH_RGPz-104" value="1" style="text;html=1;strokeColor=none;fillColor=none;align=center;verticalAlign=middle;whiteSpace=wrap;rounded=0;fontFamily=Computer Modern;" vertex="1" parent="1">
          <mxGeometry x="424" y="397" width="10" height="20" as="geometry" />
        </mxCell>
        <mxCell id="Qa7tUvaV04lccMH_RGPz-105" value="" style="endArrow=diamondThin;endFill=1;endSize=24;html=1;rounded=0;entryX=1;entryY=0.5;entryDx=0;entryDy=0;exitX=0;exitY=0.5;exitDx=0;exitDy=0;" edge="1" parent="1" source="Qa7tUvaV04lccMH_RGPz-83" target="Qa7tUvaV04lccMH_RGPz-82">
          <mxGeometry width="160" relative="1" as="geometry">
            <mxPoint x="150" y="460" as="sourcePoint" />
            <mxPoint x="310" y="460" as="targetPoint" />
          </mxGeometry>
        </mxCell>
        <mxCell id="Qa7tUvaV04lccMH_RGPz-106" value="" style="endArrow=diamondThin;endFill=1;endSize=24;html=1;rounded=0;entryX=0.5;entryY=1;entryDx=0;entryDy=0;exitX=0.5;exitY=0;exitDx=0;exitDy=0;" edge="1" parent="1" source="Qa7tUvaV04lccMH_RGPz-94" target="Qa7tUvaV04lccMH_RGPz-85">
          <mxGeometry width="160" relative="1" as="geometry">
            <mxPoint x="300" y="350" as="sourcePoint" />
            <mxPoint x="250" y="350" as="targetPoint" />
          </mxGeometry>
        </mxCell>
        <mxCell id="Qa7tUvaV04lccMH_RGPz-107" value="" style="endArrow=diamondThin;endFill=1;endSize=24;html=1;rounded=0;entryX=0;entryY=0.5;entryDx=0;entryDy=0;exitX=1;exitY=0.5;exitDx=0;exitDy=0;" edge="1" parent="1" source="Qa7tUvaV04lccMH_RGPz-96" target="Qa7tUvaV04lccMH_RGPz-94">
          <mxGeometry width="160" relative="1" as="geometry">
            <mxPoint x="505" y="417" as="sourcePoint" />
            <mxPoint x="505" y="367" as="targetPoint" />
          </mxGeometry>
        </mxCell>
        <mxCell id="Qa7tUvaV04lccMH_RGPz-112" value="&amp;nbsp; e.g. accessing the control &lt;br&gt;&amp;nbsp; register: &lt;font face=&quot;Courier New&quot;&gt;regs[C1][C0][0]&lt;/font&gt;" style="shape=note;size=20;whiteSpace=wrap;html=1;fontFamily=Computer Modern;shadow=1;align=left;" vertex="1" parent="1">
          <mxGeometry x="97" y="397" width="160" height="53" as="geometry" />
        </mxCell>
        <mxCell id="Qa7tUvaV04lccMH_RGPz-113" value="" style="endArrow=none;dashed=1;html=1;rounded=0;entryX=0.5;entryY=1;entryDx=0;entryDy=0;exitX=0;exitY=0;exitDx=70;exitDy=0;exitPerimeter=0;" edge="1" parent="1" source="Qa7tUvaV04lccMH_RGPz-112" target="Qa7tUvaV04lccMH_RGPz-82">
          <mxGeometry width="50" height="50" relative="1" as="geometry">
            <mxPoint x="-50" y="430" as="sourcePoint" />
            <mxPoint y="380" as="targetPoint" />
          </mxGeometry>
        </mxCell>
      </root>
    </mxGraphModel>
  </diagram>
</mxfile>
